<?xml version="1.0" standalone="no"?>
<svg viewBox="0 0 200 200" xmlns="http://www.w3.org/2000/svg">
  <path fill="#FFD252" d="M43.2,-75.8C55.8,-67.5,65.9,-55.6,73.2,-42.4C80.6,-29.2,85.3,-14.6,78,-4.3C70.6,6.1,51.1,12.2,38.9,17C26.6,21.8,21.6,25.3,16.4,31.8C11.1,38.3,5.6,47.7,-2.1,51.4C-9.8,55,-19.6,53,-27.1,47.8C-34.7,42.6,-39.9,34.4,-49.5,25.9C-59.1,17.4,-73,8.7,-77.8,-2.8C-82.6,-14.3,-78.4,-28.5,-66.7,-33.3C-55,-38.2,-35.8,-33.6,-23.5,-42C-11.1,-50.5,-5.6,-72,4.8,-80.4C15.3,-88.8,30.5,-84,43.2,-75.8Z" transform="translate(100 100)" />
</svg>
