<svg width="1024" height="318" viewBox="0 0 1024 318" fill="none" xmlns="http://www.w3.org/2000/svg">
<rect width="1024" height="318" fill="white"/>
<path d="M603.57 151.959L599.879 173H587.861L598.238 113.281L619.156 113.322C625.609 113.322 630.682 115.113 634.373 118.695C638.064 122.277 639.678 126.953 639.213 132.723C638.775 138.574 636.328 143.25 631.871 146.75C627.441 150.25 621.781 152 614.891 152L603.57 151.959ZM605.252 141.992L615.26 142.074C618.486 142.074 621.166 141.24 623.299 139.572C625.432 137.904 626.703 135.648 627.113 132.805C627.523 129.961 627.059 127.691 625.719 125.996C624.406 124.301 622.451 123.398 619.854 123.289L608.533 123.248L605.252 141.992ZM652.338 173H640.689L648.4 128.621H660.049L652.338 173ZM649.754 117.342C649.699 115.51 650.301 113.992 651.559 112.789C652.816 111.586 654.334 110.984 656.111 110.984C657.861 110.93 659.379 111.463 660.664 112.584C661.949 113.705 662.619 115.154 662.674 116.932C662.729 118.627 662.154 120.104 660.951 121.361C659.775 122.619 658.23 123.275 656.316 123.33C654.594 123.385 653.076 122.865 651.764 121.771C650.479 120.678 649.809 119.201 649.754 117.342ZM680.475 128.58L679.49 133.83C683.045 129.701 687.352 127.691 692.41 127.801C696.594 127.883 699.684 129.414 701.68 132.395C703.676 135.375 704.4 139.504 703.854 144.781L699.178 173H687.611L692.369 144.658C692.506 143.592 692.533 142.621 692.451 141.746C692.096 138.957 690.346 137.521 687.201 137.439C684.166 137.33 681.445 138.738 679.039 141.664L673.502 173H661.936L669.646 128.621L680.475 128.58ZM727.725 164.305C729.857 164.359 731.635 163.785 733.057 162.582C734.479 161.352 735.408 159.725 735.846 157.701L746.715 157.66C746.523 160.777 745.539 163.58 743.762 166.068C742.012 168.557 739.66 170.498 736.707 171.893C733.781 173.287 730.691 173.943 727.438 173.861C722.051 173.779 717.785 171.92 714.641 168.283C711.496 164.646 709.979 159.807 710.088 153.764L710.211 151.508L710.252 151.057C710.99 143.838 713.424 138.123 717.553 133.912C721.682 129.674 726.781 127.637 732.852 127.801C737.855 127.91 741.82 129.551 744.746 132.723C747.699 135.867 749.148 140.023 749.094 145.191H738.307C738.307 142.812 737.787 140.939 736.748 139.572C735.709 138.205 734.15 137.467 732.072 137.357C726.549 137.193 723.199 141.227 722.023 149.457C721.613 152.438 721.463 154.953 721.572 157.004C721.846 161.789 723.896 164.223 727.725 164.305ZM774.646 117.711L772.719 128.621H780.102L778.584 137.316H771.201L767.428 159.547C767.264 160.941 767.373 162.008 767.756 162.746C768.139 163.484 769.068 163.881 770.545 163.936C770.982 163.963 772.158 163.895 774.072 163.73L773.252 172.795C771.201 173.479 768.986 173.793 766.607 173.738C762.807 173.684 759.977 172.494 758.117 170.17C756.258 167.846 755.492 164.701 755.82 160.736L759.635 137.316H753.359L754.877 128.621H761.152L763.039 117.711H774.646ZM791.381 173H779.732L787.443 128.621H799.092L791.381 173ZM788.797 117.342C788.742 115.51 789.344 113.992 790.602 112.789C791.859 111.586 793.377 110.984 795.154 110.984C796.904 110.93 798.422 111.463 799.707 112.584C800.992 113.705 801.662 115.154 801.717 116.932C801.771 118.627 801.197 120.104 799.994 121.361C798.818 122.619 797.273 123.275 795.359 123.33C793.637 123.385 792.119 122.865 790.807 121.771C789.521 120.678 788.852 119.201 788.797 117.342ZM826.613 127.801C830.523 127.855 833.887 128.867 836.703 130.836C839.547 132.777 841.625 135.471 842.938 138.916C844.277 142.334 844.756 146.135 844.373 150.318C843.744 157.373 841.283 163.088 836.99 167.463C832.725 171.811 827.447 173.93 821.158 173.82C817.303 173.766 813.967 172.781 811.15 170.867C808.334 168.926 806.256 166.246 804.916 162.828C803.576 159.41 803.098 155.637 803.48 151.508C804.191 144.18 806.68 138.355 810.945 134.035C815.211 129.715 820.434 127.637 826.613 127.801ZM814.924 155.732C814.979 158.357 815.594 160.436 816.77 161.967C817.945 163.471 819.6 164.25 821.732 164.305C825.287 164.414 828.076 162.787 830.1 159.424C832.123 156.033 833.066 151.59 832.93 146.094C832.82 143.469 832.178 141.377 831.002 139.818C829.854 138.232 828.199 137.412 826.039 137.357C822.594 137.248 819.832 138.875 817.754 142.238C815.703 145.574 814.76 150.072 814.924 155.732ZM866.029 128.58L865.045 133.83C868.6 129.701 872.906 127.691 877.965 127.801C882.148 127.883 885.238 129.414 887.234 132.395C889.23 135.375 889.955 139.504 889.408 144.781L884.732 173H873.166L877.924 144.658C878.061 143.592 878.088 142.621 878.006 141.746C877.65 138.957 875.9 137.521 872.756 137.439C869.721 137.33 867 138.738 864.594 141.664L859.057 173H847.49L855.201 128.621L866.029 128.58Z" fill="#FFD252"/>
<path d="M680.746 206.666C680.746 205.852 681.384 205.192 682.198 205.192C682.99 205.192 683.65 205.852 683.65 206.666C683.65 207.458 682.99 208.096 682.198 208.096C681.384 208.096 680.746 207.458 680.746 206.666ZM679.734 206.666C679.734 208.008 680.834 209.108 682.198 209.108C683.562 209.108 684.662 208.008 684.662 206.666C684.662 205.302 683.562 204.18 682.198 204.18C680.834 204.18 679.734 205.302 679.734 206.666ZM670.186 205.5H668.14C668.228 206.006 668.272 206.754 668.272 207.282V219.382C668.272 221.164 669.218 221.934 670.912 222.242C671.814 222.396 673.134 222.462 674.432 222.462C676.83 222.462 680.13 222.286 682.044 222V219.998C680.218 220.482 676.852 220.702 674.52 220.702C673.442 220.702 672.298 220.636 671.616 220.526C670.538 220.306 670.076 220.02 670.076 218.898V214.058C672.804 213.354 676.61 212.188 679.074 211.198C679.734 210.956 680.526 210.604 681.142 210.34L680.372 208.58C679.756 208.954 679.096 209.284 678.436 209.57C676.148 210.56 672.672 211.616 670.076 212.254V207.282C670.076 206.666 670.12 206.006 670.186 205.5ZM691.042 205.874L689.788 207.216C691.416 208.316 694.166 210.67 695.266 211.814L696.652 210.428C695.42 209.196 692.604 206.908 691.042 205.874ZM689.15 220.614L690.316 222.418C693.99 221.736 696.762 220.394 698.962 219.008C702.284 216.918 704.858 213.926 706.354 211.176L705.298 209.306C704.022 212.012 701.338 215.268 697.95 217.402C695.86 218.7 693 220.042 689.15 220.614ZM709.786 207.524L709.984 209.438C712.36 208.932 717.97 208.404 720.324 208.14C718.3 209.35 716.21 212.144 716.21 215.576C716.21 220.482 720.852 222.66 724.922 222.814L725.56 220.988C721.974 220.856 717.97 219.492 717.97 215.202C717.97 212.584 719.884 209.24 723.008 208.228C724.13 207.898 726.066 207.876 727.32 207.876V206.116C725.846 206.182 723.778 206.314 721.38 206.512C717.332 206.842 713.174 207.26 711.744 207.414C711.326 207.458 710.622 207.502 709.786 207.524ZM724.152 210.582L723.03 211.066C723.69 211.968 724.328 213.112 724.834 214.168L725.956 213.64C725.494 212.672 724.658 211.308 724.152 210.582ZM726.55 209.658L725.472 210.164C726.154 211.088 726.792 212.166 727.32 213.244L728.464 212.694C727.958 211.726 727.078 210.384 726.55 209.658ZM750.53 207.128L749.452 206.094C749.122 206.16 748.33 206.226 747.912 206.226H735.284C734.47 206.226 733.546 206.138 732.776 206.028V208.03C733.634 207.942 734.47 207.898 735.284 207.898H747.824C747.098 209.262 745.03 211.66 743.006 212.826L744.458 213.992C746.966 212.254 749.056 209.416 749.936 207.92C750.09 207.678 750.376 207.348 750.53 207.128ZM741.752 210.032H739.772C739.838 210.604 739.86 211.088 739.86 211.616C739.86 215.29 739.376 218.414 735.966 220.504C735.35 220.944 734.602 221.296 733.986 221.494L735.614 222.814C741.224 220.02 741.752 215.994 741.752 210.032ZM762.766 204.906L760.72 204.246C760.588 204.818 760.258 205.61 760.038 205.984C759.092 207.964 756.914 211.154 753.13 213.42L754.648 214.564C757.046 212.958 758.894 211 760.236 209.152H767.672C767.21 211.154 765.868 213.992 764.152 216.016C762.15 218.348 759.4 220.35 755.374 221.538L756.958 222.968C761.094 221.45 763.712 219.426 765.714 216.984C767.672 214.608 769.036 211.638 769.63 209.416C769.74 209.064 769.96 208.558 770.136 208.25L768.662 207.348C768.31 207.502 767.826 207.568 767.232 207.568H761.27C761.468 207.26 761.644 206.952 761.798 206.644C761.996 206.226 762.392 205.478 762.766 204.906ZM779.574 205.104L778.584 206.578C779.882 207.326 782.258 208.91 783.314 209.702L784.348 208.206C783.402 207.502 780.872 205.83 779.574 205.104ZM776.274 220.834L777.286 222.616C779.332 222.198 782.368 221.164 784.59 219.888C788.088 217.82 791.146 214.982 793.038 212.012L791.982 210.208C790.2 213.31 787.296 216.17 783.644 218.26C781.422 219.536 778.694 220.416 776.274 220.834ZM776.252 210.054L775.284 211.55C776.604 212.232 779.002 213.772 780.08 214.564L781.092 213.024C780.124 212.32 777.55 210.758 776.252 210.054ZM799.858 209.922V211.638C800.254 211.616 801.53 211.572 802.102 211.572H810.264V215.224H802.3C801.552 215.224 800.76 215.18 800.342 215.158V216.852C800.782 216.83 801.552 216.808 802.322 216.808H810.264V220.724H801.398C800.65 220.724 799.946 220.68 799.594 220.636V222.396C799.946 222.396 800.716 222.352 801.42 222.352H810.264C810.264 222.704 810.264 223.034 810.242 223.232H811.98C811.958 222.924 811.936 222.396 811.936 222.044V211.088C811.936 210.67 811.936 210.208 811.958 209.966C811.672 209.988 811.1 210.01 810.616 210.01H802.102C801.53 210.01 800.276 209.966 799.858 209.922ZM821.946 205.874L820.692 207.216C822.32 208.316 825.07 210.67 826.17 211.814L827.556 210.428C826.324 209.196 823.508 206.908 821.946 205.874ZM820.054 220.614L821.22 222.418C824.894 221.736 827.666 220.394 829.866 219.008C833.188 216.918 835.762 213.926 837.258 211.176L836.202 209.306C834.926 212.012 832.242 215.268 828.854 217.402C826.764 218.7 823.904 220.042 820.054 220.614ZM849.072 204.598L847.268 204.444C847.224 205.258 847.026 206.248 846.718 207.194C846.234 207.216 845.728 207.216 845.266 207.216C844.254 207.216 842.714 207.128 841.548 206.974V208.624C842.758 208.712 844.21 208.756 845.156 208.756C845.464 208.756 845.794 208.756 846.124 208.756C845.288 210.538 843.814 212.804 841.042 215.488L842.538 216.588C843.286 215.708 843.902 214.894 844.54 214.3C845.53 213.376 846.938 212.694 848.324 212.694C849.314 212.694 850.106 213.112 850.326 214.058C847.752 215.4 845.134 217.028 845.134 219.624C845.134 222.308 847.664 222.99 850.81 222.99C852.724 222.99 855.166 222.814 856.838 222.594L856.882 220.834C854.946 221.164 852.592 221.362 850.876 221.362C848.61 221.362 846.894 221.098 846.894 219.382C846.894 217.93 848.324 216.764 850.37 215.686C850.37 216.852 850.348 218.282 850.304 219.118H851.998C851.976 218.04 851.954 216.17 851.932 214.894C853.604 214.102 855.166 213.464 856.398 213.002C856.992 212.76 857.784 212.452 858.356 212.298L857.63 210.648C857.014 210.978 856.486 211.22 855.826 211.506C854.682 212.034 853.34 212.562 851.844 213.288C851.492 212.012 850.326 211.308 848.896 211.308C847.95 211.308 846.674 211.594 845.838 212.122C846.586 211.132 847.312 209.878 847.818 208.712C850.216 208.624 852.944 208.448 855.122 208.096L855.144 206.468C853.076 206.842 850.678 207.04 848.434 207.15C848.764 206.116 848.94 205.258 849.072 204.598ZM691.198 232.666C691.198 231.852 691.836 231.192 692.65 231.192C693.442 231.192 694.102 231.852 694.102 232.666C694.102 233.458 693.442 234.096 692.65 234.096C691.836 234.096 691.198 233.458 691.198 232.666ZM690.186 232.666C690.186 234.008 691.286 235.108 692.65 235.108C694.014 235.108 695.114 234.008 695.114 232.666C695.114 231.302 694.014 230.18 692.65 230.18C691.286 230.18 690.186 231.302 690.186 232.666ZM680.638 231.5H678.592C678.68 232.006 678.724 232.754 678.724 233.282V245.382C678.724 247.164 679.67 247.934 681.364 248.242C682.266 248.396 683.586 248.462 684.884 248.462C687.282 248.462 690.582 248.286 692.496 248V245.998C690.67 246.482 687.304 246.702 684.972 246.702C683.894 246.702 682.75 246.636 682.068 246.526C680.99 246.306 680.528 246.02 680.528 244.898V240.058C683.256 239.354 687.062 238.188 689.526 237.198C690.186 236.956 690.978 236.604 691.594 236.34L690.824 234.58C690.208 234.954 689.548 235.284 688.888 235.57C686.6 236.56 683.124 237.616 680.528 238.254V233.282C680.528 232.666 680.572 232.006 680.638 231.5ZM701.494 231.874L700.24 233.216C701.868 234.316 704.618 236.67 705.718 237.814L707.104 236.428C705.872 235.196 703.056 232.908 701.494 231.874ZM699.602 246.614L700.768 248.418C704.442 247.736 707.214 246.394 709.414 245.008C712.736 242.918 715.31 239.926 716.806 237.176L715.75 235.306C714.474 238.012 711.79 241.268 708.402 243.402C706.312 244.7 703.452 246.042 699.602 246.614ZM720.238 233.524L720.436 235.438C722.812 234.932 728.422 234.404 730.776 234.14C728.752 235.35 726.662 238.144 726.662 241.576C726.662 246.482 731.304 248.66 735.374 248.814L736.012 246.988C732.426 246.856 728.422 245.492 728.422 241.202C728.422 238.584 730.336 235.24 733.46 234.228C734.582 233.898 736.518 233.876 737.772 233.876V232.116C736.298 232.182 734.23 232.314 731.832 232.512C727.784 232.842 723.626 233.26 722.196 233.414C721.778 233.458 721.074 233.502 720.238 233.524ZM734.604 236.582L733.482 237.066C734.142 237.968 734.78 239.112 735.286 240.168L736.408 239.64C735.946 238.672 735.11 237.308 734.604 236.582ZM737.002 235.658L735.924 236.164C736.606 237.088 737.244 238.166 737.772 239.244L738.916 238.694C738.41 237.726 737.53 236.384 737.002 235.658ZM759.772 233.326L758.43 232.468C758.056 232.556 757.528 232.6 757.044 232.6H745.758C744.812 232.6 743.998 232.578 743.404 232.534C743.47 233.018 743.492 233.502 743.492 234.008V238.694C743.492 239.112 743.47 239.574 743.404 240.102H745.406C745.362 239.574 745.34 239.024 745.34 238.694V234.294H757.484C757.264 236.89 756.648 239.706 755.394 241.664C753.59 244.48 750.444 246.394 747.21 247.252L748.706 248.77C752.248 247.626 755.262 245.382 757.044 242.566C758.628 240.08 759.09 236.956 759.486 234.36C759.53 234.14 759.684 233.546 759.772 233.326ZM774.314 230.906L772.268 230.246C772.136 230.818 771.806 231.61 771.586 231.984C770.64 233.964 768.462 237.154 764.678 239.42L766.196 240.564C768.594 238.958 770.442 237 771.784 235.152H779.22C778.758 237.154 777.416 239.992 775.7 242.016C773.698 244.348 770.948 246.35 766.922 247.538L768.506 248.968C772.642 247.45 775.26 245.426 777.262 242.984C779.22 240.608 780.584 237.638 781.178 235.416C781.288 235.064 781.508 234.558 781.684 234.25L780.21 233.348C779.858 233.502 779.374 233.568 778.78 233.568H772.818C773.016 233.26 773.192 232.952 773.346 232.644C773.544 232.226 773.94 231.478 774.314 230.906ZM803.772 233.326L802.43 232.468C802.056 232.556 801.528 232.6 801.044 232.6H789.758C788.812 232.6 787.998 232.578 787.404 232.534C787.47 233.018 787.492 233.502 787.492 234.008V238.694C787.492 239.112 787.47 239.574 787.404 240.102H789.406C789.362 239.574 789.34 239.024 789.34 238.694V234.294H801.484C801.264 236.89 800.648 239.706 799.394 241.664C797.59 244.48 794.444 246.394 791.21 247.252L792.706 248.77C796.248 247.626 799.262 245.382 801.044 242.566C802.628 240.08 803.09 236.956 803.486 234.36C803.53 234.14 803.684 233.546 803.772 233.326ZM818.314 230.906L816.268 230.246C816.136 230.818 815.806 231.61 815.586 231.984C814.64 233.964 812.462 237.154 808.678 239.42L810.196 240.564C812.594 238.958 814.442 237 815.784 235.152H823.22C822.758 237.154 821.416 239.992 819.7 242.016C817.698 244.348 814.948 246.35 810.922 247.538L812.506 248.968C816.642 247.45 819.26 245.426 821.262 242.984C823.22 240.608 824.584 237.638 825.178 235.416C825.288 235.064 825.508 234.558 825.684 234.25L824.21 233.348C823.858 233.502 823.374 233.568 822.78 233.568H816.818C817.016 233.26 817.192 232.952 817.346 232.644C817.544 232.226 817.94 231.478 818.314 230.906ZM838.62 230.598L836.816 230.444C836.772 231.258 836.574 232.248 836.266 233.194C835.782 233.216 835.276 233.216 834.814 233.216C833.802 233.216 832.262 233.128 831.096 232.974V234.624C832.306 234.712 833.758 234.756 834.704 234.756C835.012 234.756 835.342 234.756 835.672 234.756C834.836 236.538 833.362 238.804 830.59 241.488L832.086 242.588C832.834 241.708 833.45 240.894 834.088 240.3C835.078 239.376 836.486 238.694 837.872 238.694C838.862 238.694 839.654 239.112 839.874 240.058C837.3 241.4 834.682 243.028 834.682 245.624C834.682 248.308 837.212 248.99 840.358 248.99C842.272 248.99 844.714 248.814 846.386 248.594L846.43 246.834C844.494 247.164 842.14 247.362 840.424 247.362C838.158 247.362 836.442 247.098 836.442 245.382C836.442 243.93 837.872 242.764 839.918 241.686C839.918 242.852 839.896 244.282 839.852 245.118H841.546C841.524 244.04 841.502 242.17 841.48 240.894C843.152 240.102 844.714 239.464 845.946 239.002C846.54 238.76 847.332 238.452 847.904 238.298L847.178 236.648C846.562 236.978 846.034 237.22 845.374 237.506C844.23 238.034 842.888 238.562 841.392 239.288C841.04 238.012 839.874 237.308 838.444 237.308C837.498 237.308 836.222 237.594 835.386 238.122C836.134 237.132 836.86 235.878 837.366 234.712C839.764 234.624 842.492 234.448 844.67 234.096L844.692 232.468C842.624 232.842 840.226 233.04 837.982 233.15C838.312 232.116 838.488 231.258 838.62 230.598ZM728.884 256.576L727.036 256.532C727.058 256.796 727.014 257.192 726.992 257.588C726.948 258.072 726.882 258.644 726.816 259.282C726.31 259.304 725.826 259.304 725.32 259.304C724.374 259.304 722.46 259.15 721.69 259.018L721.734 260.668C722.636 260.734 724.352 260.822 725.298 260.822C725.738 260.822 726.178 260.822 726.64 260.8C726.552 261.834 726.442 262.934 726.398 264.034C723.362 265.442 720.898 268.324 720.898 271.162C720.898 273.032 722.042 273.934 723.494 273.934C724.704 273.934 726.024 273.45 727.234 272.724C727.344 273.164 727.454 273.582 727.586 273.956L729.17 273.472C728.994 272.922 728.818 272.328 728.642 271.69C730.512 270.106 732.294 267.664 733.548 264.54C735.594 265.134 736.716 266.63 736.716 268.302C736.716 271.162 734.252 273.208 730.27 273.626L731.216 275.1C736.32 274.286 738.41 271.558 738.41 268.39C738.41 265.97 736.782 263.946 734.032 263.22C734.032 263.176 734.054 263.154 734.054 263.132C734.164 262.78 734.362 262.186 734.494 261.878L732.756 261.438C732.734 261.812 732.624 262.384 732.514 262.714C732.492 262.802 732.47 262.868 732.448 262.934C732.184 262.912 731.92 262.912 731.634 262.912C730.512 262.912 729.17 263.11 727.938 263.462C728.004 262.538 728.07 261.614 728.18 260.756C730.864 260.624 733.79 260.316 736.1 259.92L736.078 258.292C733.834 258.82 731.15 259.106 728.356 259.238C728.444 258.6 728.532 258.028 728.62 257.566C728.686 257.258 728.774 256.862 728.884 256.576ZM727.872 265.904C727.872 265.596 727.872 265.31 727.894 265.002C728.906 264.628 730.182 264.298 731.612 264.298C731.744 264.298 731.876 264.298 731.986 264.298C731.062 266.762 729.72 268.544 728.246 269.93C728.026 268.654 727.872 267.312 727.872 265.904ZM722.57 270.876C722.57 269.072 724.198 266.894 726.332 265.684C726.332 265.816 726.332 265.948 726.332 266.08C726.332 267.73 726.552 269.512 726.86 271.074C725.738 271.866 724.682 272.24 723.824 272.24C722.988 272.24 722.57 271.778 722.57 270.876ZM750.422 256.532L748.486 256.356C748.442 257.544 748.134 258.93 747.804 260.162C746.946 260.228 746.11 260.272 745.318 260.272C744.394 260.272 743.448 260.228 742.634 260.118L742.744 261.768C743.58 261.812 744.504 261.834 745.318 261.834C745.956 261.834 746.616 261.812 747.276 261.768C746.264 264.342 744.394 267.862 742.568 269.996L744.262 270.876C746.022 268.5 747.98 264.694 749.058 261.592C750.51 261.394 751.896 261.108 753.062 260.778L753.018 259.128C751.896 259.502 750.708 259.766 749.564 259.942C749.916 258.666 750.224 257.324 750.422 256.532ZM749.212 271.8C749.212 270.788 750.312 270.04 751.918 270.04C752.71 270.04 753.48 270.15 754.184 270.37C754.206 270.744 754.206 271.074 754.206 271.36C754.206 272.57 753.59 273.538 751.764 273.538C750.048 273.538 749.212 272.834 749.212 271.8ZM755.614 263.33H753.898C753.942 264.892 754.052 267.07 754.14 268.874C753.458 268.72 752.732 268.654 751.984 268.654C749.498 268.654 747.584 269.93 747.584 271.954C747.584 274.132 749.564 275.122 751.984 275.122C754.712 275.122 755.834 273.692 755.834 271.932C755.834 271.668 755.834 271.36 755.812 271.008C757.242 271.712 758.43 272.702 759.376 273.538L760.322 272.042C759.178 271.074 757.638 269.996 755.746 269.314C755.702 267.95 755.614 266.52 755.592 265.706C755.57 264.914 755.57 264.232 755.614 263.33ZM760.014 263.924L761.004 262.472C759.97 261.68 757.462 260.25 755.878 259.546L754.976 260.888C756.45 261.548 758.826 262.912 760.014 263.924ZM774.776 268.742L773.126 268.588C772.95 269.512 772.796 270.326 772.796 271.184C772.796 273.362 774.688 274.418 778.164 274.418C779.77 274.418 781.222 274.286 782.41 274.11L782.476 272.328C781.134 272.614 779.616 272.768 778.186 272.768C775.04 272.768 774.468 271.756 774.468 270.722C774.468 270.15 774.578 269.468 774.776 268.742ZM772.246 256.686L770.134 256.51C770.178 256.972 770.156 257.72 770.068 258.336C770.002 258.776 769.892 259.48 769.738 260.25C768.88 260.316 768.088 260.36 767.362 260.36C766.57 260.36 765.778 260.338 764.722 260.206L764.788 261.922C765.58 261.966 766.372 262.01 767.34 262.01C767.956 262.01 768.638 261.988 769.364 261.944C769.188 262.736 768.99 263.572 768.792 264.298C767.978 267.4 766.416 271.866 765.096 274.132L767.032 274.792C768.176 272.372 769.672 267.84 770.464 264.716C770.728 263.748 770.97 262.736 771.168 261.768C772.708 261.592 774.314 261.35 775.744 261.02V259.282C774.402 259.634 772.95 259.898 771.52 260.074C771.652 259.48 771.762 258.908 771.85 258.446C771.938 258.006 772.114 257.17 772.246 256.686ZM774.314 263.396V265.024C775.678 264.87 777.02 264.804 778.406 264.804C779.682 264.804 780.98 264.914 782.102 265.068L782.146 263.396C780.958 263.264 779.638 263.198 778.34 263.198C776.932 263.198 775.48 263.286 774.314 263.396ZM794.532 259.15V260.91C796.952 261.174 801.22 261.174 803.574 260.91V259.128C801.374 259.458 796.93 259.546 794.532 259.15ZM795.39 268.104L793.806 267.95C793.564 269.028 793.432 269.798 793.432 270.546C793.432 272.614 795.082 273.846 798.778 273.846C801.044 273.846 802.892 273.648 804.278 273.384L804.234 271.536C802.452 271.932 800.758 272.108 798.778 272.108C795.786 272.108 795.06 271.14 795.06 270.128C795.06 269.534 795.17 268.918 795.39 268.104ZM790.33 257.456L788.372 257.28C788.372 257.764 788.306 258.336 788.218 258.842C787.954 260.668 787.228 264.43 787.228 267.664C787.228 270.634 787.602 273.164 788.042 274.726L789.626 274.616C789.604 274.396 789.582 274.088 789.56 273.846C789.538 273.604 789.604 273.186 789.67 272.856C789.868 271.822 790.66 269.49 791.232 267.928L790.308 267.224C789.934 268.126 789.406 269.446 789.032 270.436C788.9 269.358 788.834 268.434 788.834 267.356C788.834 264.892 789.516 260.954 789.934 258.93C790.022 258.534 790.22 257.83 790.33 257.456Z" fill="#FFD252"/>
<line x1="877" y1="167.5" x2="1024" y2="167.5" stroke="#FFD252" stroke-width="11"/>
</svg>
