<svg width="328" height="388" viewBox="0 0 328 388" fill="none" xmlns="http://www.w3.org/2000/svg">
<g clip-path="url(#clip0)">
<rect width="328" height="388" fill="white"/>
<path d="M127.441 265.472L124.893 280H116.595L123.76 238.766L138.203 238.794C142.659 238.794 146.161 240.031 148.71 242.504C151.259 244.977 152.373 248.206 152.052 252.189C151.75 256.23 150.06 259.458 146.982 261.875C143.924 264.292 140.016 265.5 135.258 265.5L127.441 265.472ZM128.603 258.59L135.513 258.646C137.741 258.646 139.591 258.071 141.063 256.919C142.536 255.767 143.414 254.21 143.697 252.246C143.98 250.283 143.66 248.715 142.734 247.545C141.828 246.374 140.478 245.751 138.685 245.676L130.868 245.647L128.603 258.59ZM161.114 280H153.071L158.396 249.357H166.438L161.114 280ZM159.33 241.569C159.292 240.304 159.708 239.257 160.576 238.426C161.445 237.595 162.493 237.18 163.72 237.18C164.928 237.142 165.976 237.51 166.863 238.284C167.751 239.058 168.213 240.059 168.251 241.286C168.289 242.457 167.892 243.476 167.062 244.345C166.25 245.213 165.183 245.666 163.861 245.704C162.672 245.742 161.624 245.383 160.718 244.628C159.83 243.873 159.368 242.853 159.33 241.569ZM180.542 249.329L179.862 252.954C182.317 250.103 185.29 248.715 188.783 248.791C191.672 248.848 193.805 249.905 195.184 251.963C196.562 254.021 197.062 256.872 196.685 260.516L193.456 280H185.47L188.755 260.431C188.849 259.694 188.868 259.024 188.812 258.42C188.566 256.494 187.358 255.503 185.187 255.446C183.091 255.371 181.212 256.343 179.551 258.363L175.728 280H167.741L173.065 249.357L180.542 249.329ZM213.167 273.996C214.64 274.034 215.867 273.637 216.849 272.807C217.83 271.957 218.472 270.834 218.774 269.437L226.279 269.408C226.147 271.561 225.467 273.496 224.24 275.214C223.032 276.932 221.408 278.272 219.369 279.235C217.349 280.198 215.215 280.651 212.969 280.595C209.249 280.538 206.304 279.254 204.133 276.743C201.962 274.232 200.914 270.89 200.989 266.718L201.074 265.16L201.103 264.849C201.612 259.864 203.293 255.918 206.144 253.011C208.994 250.084 212.516 248.678 216.707 248.791C220.162 248.867 222.9 249.999 224.92 252.189C226.959 254.361 227.96 257.23 227.922 260.799H220.474C220.474 259.156 220.115 257.863 219.397 256.919C218.68 255.975 217.604 255.465 216.169 255.39C212.355 255.276 210.042 258.061 209.23 263.744C208.947 265.802 208.843 267.539 208.919 268.955C209.108 272.259 210.524 273.939 213.167 273.996ZM245.565 241.824L244.234 249.357H249.332L248.284 255.361H243.187L240.581 270.711C240.468 271.674 240.543 272.41 240.808 272.92C241.072 273.43 241.714 273.703 242.733 273.741C243.035 273.76 243.847 273.713 245.169 273.6L244.603 279.858C243.187 280.33 241.657 280.548 240.015 280.51C237.39 280.472 235.436 279.651 234.152 278.046C232.868 276.441 232.34 274.27 232.566 271.532L235.2 255.361H230.867L231.915 249.357H236.248L237.551 241.824H245.565ZM257.12 280H249.077L254.401 249.357H262.444L257.12 280ZM255.336 241.569C255.298 240.304 255.714 239.257 256.582 238.426C257.451 237.595 258.498 237.18 259.726 237.18C260.934 237.142 261.982 237.51 262.869 238.284C263.757 239.058 264.219 240.059 264.257 241.286C264.295 242.457 263.898 243.476 263.067 244.345C262.256 245.213 261.189 245.666 259.867 245.704C258.678 245.742 257.63 245.383 256.724 244.628C255.836 243.873 255.374 242.853 255.336 241.569ZM281.447 248.791C284.147 248.829 286.469 249.527 288.414 250.887C290.378 252.227 291.812 254.087 292.719 256.466C293.644 258.826 293.974 261.45 293.71 264.339C293.276 269.21 291.576 273.156 288.612 276.177C285.667 279.179 282.023 280.642 277.681 280.566C275.019 280.529 272.715 279.849 270.771 278.527C268.826 277.187 267.391 275.337 266.466 272.977C265.541 270.617 265.21 268.011 265.475 265.16C265.965 260.1 267.684 256.079 270.629 253.096C273.574 250.113 277.18 248.678 281.447 248.791ZM273.376 268.077C273.414 269.89 273.839 271.325 274.65 272.382C275.462 273.42 276.604 273.958 278.077 273.996C280.532 274.072 282.457 272.948 283.854 270.626C285.252 268.285 285.903 265.217 285.809 261.422C285.733 259.609 285.289 258.165 284.478 257.089C283.685 255.994 282.542 255.427 281.051 255.39C278.672 255.314 276.765 256.438 275.33 258.76C273.914 261.063 273.263 264.169 273.376 268.077ZM308.663 249.329L307.983 252.954C310.438 250.103 313.411 248.715 316.904 248.791C319.793 248.848 321.926 249.905 323.305 251.963C324.683 254.021 325.183 256.872 324.806 260.516L321.577 280H313.591L316.876 260.431C316.97 259.694 316.989 259.024 316.933 258.42C316.687 256.494 315.479 255.503 313.308 255.446C311.212 255.371 309.333 256.343 307.672 258.363L303.849 280H295.862L301.187 249.357L308.663 249.329Z" fill="#FFD252"/>
<path d="M135.746 302.666C135.746 301.852 136.384 301.192 137.198 301.192C137.99 301.192 138.65 301.852 138.65 302.666C138.65 303.458 137.99 304.096 137.198 304.096C136.384 304.096 135.746 303.458 135.746 302.666ZM134.734 302.666C134.734 304.008 135.834 305.108 137.198 305.108C138.562 305.108 139.662 304.008 139.662 302.666C139.662 301.302 138.562 300.18 137.198 300.18C135.834 300.18 134.734 301.302 134.734 302.666ZM125.186 301.5H123.14C123.228 302.006 123.272 302.754 123.272 303.282V315.382C123.272 317.164 124.218 317.934 125.912 318.242C126.814 318.396 128.134 318.462 129.432 318.462C131.83 318.462 135.13 318.286 137.044 318V315.998C135.218 316.482 131.852 316.702 129.52 316.702C128.442 316.702 127.298 316.636 126.616 316.526C125.538 316.306 125.076 316.02 125.076 314.898V310.058C127.804 309.354 131.61 308.188 134.074 307.198C134.734 306.956 135.526 306.604 136.142 306.34L135.372 304.58C134.756 304.954 134.096 305.284 133.436 305.57C131.148 306.56 127.672 307.616 125.076 308.254V303.282C125.076 302.666 125.12 302.006 125.186 301.5ZM146.042 301.874L144.788 303.216C146.416 304.316 149.166 306.67 150.266 307.814L151.652 306.428C150.42 305.196 147.604 302.908 146.042 301.874ZM144.15 316.614L145.316 318.418C148.99 317.736 151.762 316.394 153.962 315.008C157.284 312.918 159.858 309.926 161.354 307.176L160.298 305.306C159.022 308.012 156.338 311.268 152.95 313.402C150.86 314.7 148 316.042 144.15 316.614ZM164.786 303.524L164.984 305.438C167.36 304.932 172.97 304.404 175.324 304.14C173.3 305.35 171.21 308.144 171.21 311.576C171.21 316.482 175.852 318.66 179.922 318.814L180.56 316.988C176.974 316.856 172.97 315.492 172.97 311.202C172.97 308.584 174.884 305.24 178.008 304.228C179.13 303.898 181.066 303.876 182.32 303.876V302.116C180.846 302.182 178.778 302.314 176.38 302.512C172.332 302.842 168.174 303.26 166.744 303.414C166.326 303.458 165.622 303.502 164.786 303.524ZM179.152 306.582L178.03 307.066C178.69 307.968 179.328 309.112 179.834 310.168L180.956 309.64C180.494 308.672 179.658 307.308 179.152 306.582ZM181.55 305.658L180.472 306.164C181.154 307.088 181.792 308.166 182.32 309.244L183.464 308.694C182.958 307.726 182.078 306.384 181.55 305.658ZM205.53 303.128L204.452 302.094C204.122 302.16 203.33 302.226 202.912 302.226H190.284C189.47 302.226 188.546 302.138 187.776 302.028V304.03C188.634 303.942 189.47 303.898 190.284 303.898H202.824C202.098 305.262 200.03 307.66 198.006 308.826L199.458 309.992C201.966 308.254 204.056 305.416 204.936 303.92C205.09 303.678 205.376 303.348 205.53 303.128ZM196.752 306.032H194.772C194.838 306.604 194.86 307.088 194.86 307.616C194.86 311.29 194.376 314.414 190.966 316.504C190.35 316.944 189.602 317.296 188.986 317.494L190.614 318.814C196.224 316.02 196.752 311.994 196.752 306.032ZM217.766 300.906L215.72 300.246C215.588 300.818 215.258 301.61 215.038 301.984C214.092 303.964 211.914 307.154 208.13 309.42L209.648 310.564C212.046 308.958 213.894 307 215.236 305.152H222.672C222.21 307.154 220.868 309.992 219.152 312.016C217.15 314.348 214.4 316.35 210.374 317.538L211.958 318.968C216.094 317.45 218.712 315.426 220.714 312.984C222.672 310.608 224.036 307.638 224.63 305.416C224.74 305.064 224.96 304.558 225.136 304.25L223.662 303.348C223.31 303.502 222.826 303.568 222.232 303.568H216.27C216.468 303.26 216.644 302.952 216.798 302.644C216.996 302.226 217.392 301.478 217.766 300.906ZM234.574 301.104L233.584 302.578C234.882 303.326 237.258 304.91 238.314 305.702L239.348 304.206C238.402 303.502 235.872 301.83 234.574 301.104ZM231.274 316.834L232.286 318.616C234.332 318.198 237.368 317.164 239.59 315.888C243.088 313.82 246.146 310.982 248.038 308.012L246.982 306.208C245.2 309.31 242.296 312.17 238.644 314.26C236.422 315.536 233.694 316.416 231.274 316.834ZM231.252 306.054L230.284 307.55C231.604 308.232 234.002 309.772 235.08 310.564L236.092 309.024C235.124 308.32 232.55 306.758 231.252 306.054ZM254.858 305.922V307.638C255.254 307.616 256.53 307.572 257.102 307.572H265.264V311.224H257.3C256.552 311.224 255.76 311.18 255.342 311.158V312.852C255.782 312.83 256.552 312.808 257.322 312.808H265.264V316.724H256.398C255.65 316.724 254.946 316.68 254.594 316.636V318.396C254.946 318.396 255.716 318.352 256.42 318.352H265.264C265.264 318.704 265.264 319.034 265.242 319.232H266.98C266.958 318.924 266.936 318.396 266.936 318.044V307.088C266.936 306.67 266.936 306.208 266.958 305.966C266.672 305.988 266.1 306.01 265.616 306.01H257.102C256.53 306.01 255.276 305.966 254.858 305.922ZM276.946 301.874L275.692 303.216C277.32 304.316 280.07 306.67 281.17 307.814L282.556 306.428C281.324 305.196 278.508 302.908 276.946 301.874ZM275.054 316.614L276.22 318.418C279.894 317.736 282.666 316.394 284.866 315.008C288.188 312.918 290.762 309.926 292.258 307.176L291.202 305.306C289.926 308.012 287.242 311.268 283.854 313.402C281.764 314.7 278.904 316.042 275.054 316.614ZM304.072 300.598L302.268 300.444C302.224 301.258 302.026 302.248 301.718 303.194C301.234 303.216 300.728 303.216 300.266 303.216C299.254 303.216 297.714 303.128 296.548 302.974V304.624C297.758 304.712 299.21 304.756 300.156 304.756C300.464 304.756 300.794 304.756 301.124 304.756C300.288 306.538 298.814 308.804 296.042 311.488L297.538 312.588C298.286 311.708 298.902 310.894 299.54 310.3C300.53 309.376 301.938 308.694 303.324 308.694C304.314 308.694 305.106 309.112 305.326 310.058C302.752 311.4 300.134 313.028 300.134 315.624C300.134 318.308 302.664 318.99 305.81 318.99C307.724 318.99 310.166 318.814 311.838 318.594L311.882 316.834C309.946 317.164 307.592 317.362 305.876 317.362C303.61 317.362 301.894 317.098 301.894 315.382C301.894 313.93 303.324 312.764 305.37 311.686C305.37 312.852 305.348 314.282 305.304 315.118H306.998C306.976 314.04 306.954 312.17 306.932 310.894C308.604 310.102 310.166 309.464 311.398 309.002C311.992 308.76 312.784 308.452 313.356 308.298L312.63 306.648C312.014 306.978 311.486 307.22 310.826 307.506C309.682 308.034 308.34 308.562 306.844 309.288C306.492 308.012 305.326 307.308 303.896 307.308C302.95 307.308 301.674 307.594 300.838 308.122C301.586 307.132 302.312 305.878 302.818 304.712C305.216 304.624 307.944 304.448 310.122 304.096L310.144 302.468C308.076 302.842 305.678 303.04 303.434 303.15C303.764 302.116 303.94 301.258 304.072 300.598ZM146.198 328.666C146.198 327.852 146.836 327.192 147.65 327.192C148.442 327.192 149.102 327.852 149.102 328.666C149.102 329.458 148.442 330.096 147.65 330.096C146.836 330.096 146.198 329.458 146.198 328.666ZM145.186 328.666C145.186 330.008 146.286 331.108 147.65 331.108C149.014 331.108 150.114 330.008 150.114 328.666C150.114 327.302 149.014 326.18 147.65 326.18C146.286 326.18 145.186 327.302 145.186 328.666ZM135.638 327.5H133.592C133.68 328.006 133.724 328.754 133.724 329.282V341.382C133.724 343.164 134.67 343.934 136.364 344.242C137.266 344.396 138.586 344.462 139.884 344.462C142.282 344.462 145.582 344.286 147.496 344V341.998C145.67 342.482 142.304 342.702 139.972 342.702C138.894 342.702 137.75 342.636 137.068 342.526C135.99 342.306 135.528 342.02 135.528 340.898V336.058C138.256 335.354 142.062 334.188 144.526 333.198C145.186 332.956 145.978 332.604 146.594 332.34L145.824 330.58C145.208 330.954 144.548 331.284 143.888 331.57C141.6 332.56 138.124 333.616 135.528 334.254V329.282C135.528 328.666 135.572 328.006 135.638 327.5ZM156.494 327.874L155.24 329.216C156.868 330.316 159.618 332.67 160.718 333.814L162.104 332.428C160.872 331.196 158.056 328.908 156.494 327.874ZM154.602 342.614L155.768 344.418C159.442 343.736 162.214 342.394 164.414 341.008C167.736 338.918 170.31 335.926 171.806 333.176L170.75 331.306C169.474 334.012 166.79 337.268 163.402 339.402C161.312 340.7 158.452 342.042 154.602 342.614ZM175.238 329.524L175.436 331.438C177.812 330.932 183.422 330.404 185.776 330.14C183.752 331.35 181.662 334.144 181.662 337.576C181.662 342.482 186.304 344.66 190.374 344.814L191.012 342.988C187.426 342.856 183.422 341.492 183.422 337.202C183.422 334.584 185.336 331.24 188.46 330.228C189.582 329.898 191.518 329.876 192.772 329.876V328.116C191.298 328.182 189.23 328.314 186.832 328.512C182.784 328.842 178.626 329.26 177.196 329.414C176.778 329.458 176.074 329.502 175.238 329.524ZM189.604 332.582L188.482 333.066C189.142 333.968 189.78 335.112 190.286 336.168L191.408 335.64C190.946 334.672 190.11 333.308 189.604 332.582ZM192.002 331.658L190.924 332.164C191.606 333.088 192.244 334.166 192.772 335.244L193.916 334.694C193.41 333.726 192.53 332.384 192.002 331.658ZM214.772 329.326L213.43 328.468C213.056 328.556 212.528 328.6 212.044 328.6H200.758C199.812 328.6 198.998 328.578 198.404 328.534C198.47 329.018 198.492 329.502 198.492 330.008V334.694C198.492 335.112 198.47 335.574 198.404 336.102H200.406C200.362 335.574 200.34 335.024 200.34 334.694V330.294H212.484C212.264 332.89 211.648 335.706 210.394 337.664C208.59 340.48 205.444 342.394 202.21 343.252L203.706 344.77C207.248 343.626 210.262 341.382 212.044 338.566C213.628 336.08 214.09 332.956 214.486 330.36C214.53 330.14 214.684 329.546 214.772 329.326ZM229.314 326.906L227.268 326.246C227.136 326.818 226.806 327.61 226.586 327.984C225.64 329.964 223.462 333.154 219.678 335.42L221.196 336.564C223.594 334.958 225.442 333 226.784 331.152H234.22C233.758 333.154 232.416 335.992 230.7 338.016C228.698 340.348 225.948 342.35 221.922 343.538L223.506 344.968C227.642 343.45 230.26 341.426 232.262 338.984C234.22 336.608 235.584 333.638 236.178 331.416C236.288 331.064 236.508 330.558 236.684 330.25L235.21 329.348C234.858 329.502 234.374 329.568 233.78 329.568H227.818C228.016 329.26 228.192 328.952 228.346 328.644C228.544 328.226 228.94 327.478 229.314 326.906ZM258.772 329.326L257.43 328.468C257.056 328.556 256.528 328.6 256.044 328.6H244.758C243.812 328.6 242.998 328.578 242.404 328.534C242.47 329.018 242.492 329.502 242.492 330.008V334.694C242.492 335.112 242.47 335.574 242.404 336.102H244.406C244.362 335.574 244.34 335.024 244.34 334.694V330.294H256.484C256.264 332.89 255.648 335.706 254.394 337.664C252.59 340.48 249.444 342.394 246.21 343.252L247.706 344.77C251.248 343.626 254.262 341.382 256.044 338.566C257.628 336.08 258.09 332.956 258.486 330.36C258.53 330.14 258.684 329.546 258.772 329.326ZM273.314 326.906L271.268 326.246C271.136 326.818 270.806 327.61 270.586 327.984C269.64 329.964 267.462 333.154 263.678 335.42L265.196 336.564C267.594 334.958 269.442 333 270.784 331.152H278.22C277.758 333.154 276.416 335.992 274.7 338.016C272.698 340.348 269.948 342.35 265.922 343.538L267.506 344.968C271.642 343.45 274.26 341.426 276.262 338.984C278.22 336.608 279.584 333.638 280.178 331.416C280.288 331.064 280.508 330.558 280.684 330.25L279.21 329.348C278.858 329.502 278.374 329.568 277.78 329.568H271.818C272.016 329.26 272.192 328.952 272.346 328.644C272.544 328.226 272.94 327.478 273.314 326.906ZM293.62 326.598L291.816 326.444C291.772 327.258 291.574 328.248 291.266 329.194C290.782 329.216 290.276 329.216 289.814 329.216C288.802 329.216 287.262 329.128 286.096 328.974V330.624C287.306 330.712 288.758 330.756 289.704 330.756C290.012 330.756 290.342 330.756 290.672 330.756C289.836 332.538 288.362 334.804 285.59 337.488L287.086 338.588C287.834 337.708 288.45 336.894 289.088 336.3C290.078 335.376 291.486 334.694 292.872 334.694C293.862 334.694 294.654 335.112 294.874 336.058C292.3 337.4 289.682 339.028 289.682 341.624C289.682 344.308 292.212 344.99 295.358 344.99C297.272 344.99 299.714 344.814 301.386 344.594L301.43 342.834C299.494 343.164 297.14 343.362 295.424 343.362C293.158 343.362 291.442 343.098 291.442 341.382C291.442 339.93 292.872 338.764 294.918 337.686C294.918 338.852 294.896 340.282 294.852 341.118H296.546C296.524 340.04 296.502 338.17 296.48 336.894C298.152 336.102 299.714 335.464 300.946 335.002C301.54 334.76 302.332 334.452 302.904 334.298L302.178 332.648C301.562 332.978 301.034 333.22 300.374 333.506C299.23 334.034 297.888 334.562 296.392 335.288C296.04 334.012 294.874 333.308 293.444 333.308C292.498 333.308 291.222 333.594 290.386 334.122C291.134 333.132 291.86 331.878 292.366 330.712C294.764 330.624 297.492 330.448 299.67 330.096L299.692 328.468C297.624 328.842 295.226 329.04 292.982 329.15C293.312 328.116 293.488 327.258 293.62 326.598ZM183.884 352.576L182.036 352.532C182.058 352.796 182.014 353.192 181.992 353.588C181.948 354.072 181.882 354.644 181.816 355.282C181.31 355.304 180.826 355.304 180.32 355.304C179.374 355.304 177.46 355.15 176.69 355.018L176.734 356.668C177.636 356.734 179.352 356.822 180.298 356.822C180.738 356.822 181.178 356.822 181.64 356.8C181.552 357.834 181.442 358.934 181.398 360.034C178.362 361.442 175.898 364.324 175.898 367.162C175.898 369.032 177.042 369.934 178.494 369.934C179.704 369.934 181.024 369.45 182.234 368.724C182.344 369.164 182.454 369.582 182.586 369.956L184.17 369.472C183.994 368.922 183.818 368.328 183.642 367.69C185.512 366.106 187.294 363.664 188.548 360.54C190.594 361.134 191.716 362.63 191.716 364.302C191.716 367.162 189.252 369.208 185.27 369.626L186.216 371.1C191.32 370.286 193.41 367.558 193.41 364.39C193.41 361.97 191.782 359.946 189.032 359.22C189.032 359.176 189.054 359.154 189.054 359.132C189.164 358.78 189.362 358.186 189.494 357.878L187.756 357.438C187.734 357.812 187.624 358.384 187.514 358.714C187.492 358.802 187.47 358.868 187.448 358.934C187.184 358.912 186.92 358.912 186.634 358.912C185.512 358.912 184.17 359.11 182.938 359.462C183.004 358.538 183.07 357.614 183.18 356.756C185.864 356.624 188.79 356.316 191.1 355.92L191.078 354.292C188.834 354.82 186.15 355.106 183.356 355.238C183.444 354.6 183.532 354.028 183.62 353.566C183.686 353.258 183.774 352.862 183.884 352.576ZM182.872 361.904C182.872 361.596 182.872 361.31 182.894 361.002C183.906 360.628 185.182 360.298 186.612 360.298C186.744 360.298 186.876 360.298 186.986 360.298C186.062 362.762 184.72 364.544 183.246 365.93C183.026 364.654 182.872 363.312 182.872 361.904ZM177.57 366.876C177.57 365.072 179.198 362.894 181.332 361.684C181.332 361.816 181.332 361.948 181.332 362.08C181.332 363.73 181.552 365.512 181.86 367.074C180.738 367.866 179.682 368.24 178.824 368.24C177.988 368.24 177.57 367.778 177.57 366.876ZM205.422 352.532L203.486 352.356C203.442 353.544 203.134 354.93 202.804 356.162C201.946 356.228 201.11 356.272 200.318 356.272C199.394 356.272 198.448 356.228 197.634 356.118L197.744 357.768C198.58 357.812 199.504 357.834 200.318 357.834C200.956 357.834 201.616 357.812 202.276 357.768C201.264 360.342 199.394 363.862 197.568 365.996L199.262 366.876C201.022 364.5 202.98 360.694 204.058 357.592C205.51 357.394 206.896 357.108 208.062 356.778L208.018 355.128C206.896 355.502 205.708 355.766 204.564 355.942C204.916 354.666 205.224 353.324 205.422 352.532ZM204.212 367.8C204.212 366.788 205.312 366.04 206.918 366.04C207.71 366.04 208.48 366.15 209.184 366.37C209.206 366.744 209.206 367.074 209.206 367.36C209.206 368.57 208.59 369.538 206.764 369.538C205.048 369.538 204.212 368.834 204.212 367.8ZM210.614 359.33H208.898C208.942 360.892 209.052 363.07 209.14 364.874C208.458 364.72 207.732 364.654 206.984 364.654C204.498 364.654 202.584 365.93 202.584 367.954C202.584 370.132 204.564 371.122 206.984 371.122C209.712 371.122 210.834 369.692 210.834 367.932C210.834 367.668 210.834 367.36 210.812 367.008C212.242 367.712 213.43 368.702 214.376 369.538L215.322 368.042C214.178 367.074 212.638 365.996 210.746 365.314C210.702 363.95 210.614 362.52 210.592 361.706C210.57 360.914 210.57 360.232 210.614 359.33ZM215.014 359.924L216.004 358.472C214.97 357.68 212.462 356.25 210.878 355.546L209.976 356.888C211.45 357.548 213.826 358.912 215.014 359.924ZM229.776 364.742L228.126 364.588C227.95 365.512 227.796 366.326 227.796 367.184C227.796 369.362 229.688 370.418 233.164 370.418C234.77 370.418 236.222 370.286 237.41 370.11L237.476 368.328C236.134 368.614 234.616 368.768 233.186 368.768C230.04 368.768 229.468 367.756 229.468 366.722C229.468 366.15 229.578 365.468 229.776 364.742ZM227.246 352.686L225.134 352.51C225.178 352.972 225.156 353.72 225.068 354.336C225.002 354.776 224.892 355.48 224.738 356.25C223.88 356.316 223.088 356.36 222.362 356.36C221.57 356.36 220.778 356.338 219.722 356.206L219.788 357.922C220.58 357.966 221.372 358.01 222.34 358.01C222.956 358.01 223.638 357.988 224.364 357.944C224.188 358.736 223.99 359.572 223.792 360.298C222.978 363.4 221.416 367.866 220.096 370.132L222.032 370.792C223.176 368.372 224.672 363.84 225.464 360.716C225.728 359.748 225.97 358.736 226.168 357.768C227.708 357.592 229.314 357.35 230.744 357.02V355.282C229.402 355.634 227.95 355.898 226.52 356.074C226.652 355.48 226.762 354.908 226.85 354.446C226.938 354.006 227.114 353.17 227.246 352.686ZM229.314 359.396V361.024C230.678 360.87 232.02 360.804 233.406 360.804C234.682 360.804 235.98 360.914 237.102 361.068L237.146 359.396C235.958 359.264 234.638 359.198 233.34 359.198C231.932 359.198 230.48 359.286 229.314 359.396ZM249.532 355.15V356.91C251.952 357.174 256.22 357.174 258.574 356.91V355.128C256.374 355.458 251.93 355.546 249.532 355.15ZM250.39 364.104L248.806 363.95C248.564 365.028 248.432 365.798 248.432 366.546C248.432 368.614 250.082 369.846 253.778 369.846C256.044 369.846 257.892 369.648 259.278 369.384L259.234 367.536C257.452 367.932 255.758 368.108 253.778 368.108C250.786 368.108 250.06 367.14 250.06 366.128C250.06 365.534 250.17 364.918 250.39 364.104ZM245.33 353.456L243.372 353.28C243.372 353.764 243.306 354.336 243.218 354.842C242.954 356.668 242.228 360.43 242.228 363.664C242.228 366.634 242.602 369.164 243.042 370.726L244.626 370.616C244.604 370.396 244.582 370.088 244.56 369.846C244.538 369.604 244.604 369.186 244.67 368.856C244.868 367.822 245.66 365.49 246.232 363.928L245.308 363.224C244.934 364.126 244.406 365.446 244.032 366.436C243.9 365.358 243.834 364.434 243.834 363.356C243.834 360.892 244.516 356.954 244.934 354.93C245.022 354.534 245.22 353.83 245.33 353.456Z" fill="#FFD252"/>
</g>
<defs>
<clipPath id="clip0">
<rect width="328" height="388" fill="white"/>
</clipPath>
</defs>
</svg>
